<svg width="24" height="24" viewBox="0 0 24 24" fill="none" xmlns="http://www.w3.org/2000/svg">
  <circle cx="12" cy="4" r="2" fill="currentColor"/>
  <path d="M8 6H16C17.1 6 18 6.9 18 8C18 9.1 17.1 10 16 10H8C6.9 10 6 9.1 6 8C6 6.9 6.9 6 8 6Z" fill="currentColor" opacity="0.8"/>
  <path d="M10 12V22H8V12C8 11.4 8.4 11 9 11C9.6 11 10 11.4 10 12Z" fill="currentColor"/>
  <path d="M16 12V22H14V12C14 11.4 14.4 11 15 11C15.6 11 16 11.4 16 12Z" fill="currentColor"/>
  <path d="M7 14L10 16L7 18" stroke="currentColor" stroke-width="1.5" stroke-linecap="round" stroke-linejoin="round" fill="none" opacity="0.6"/>
  <path d="M17 14L14 16L17 18" stroke="currentColor" stroke-width="1.5" stroke-linecap="round" stroke-linejoin="round" fill="none" opacity="0.6"/>
</svg>