<svg width="24" height="24" viewBox="0 0 24 24" fill="none" xmlns="http://www.w3.org/2000/svg">
  <path d="M12 2C8.5 2 5.7 4.4 5.1 7.6C3.9 8.2 3 9.5 3 11C3 12.1 3.4 13.1 4.1 13.8C4 14.2 4 14.6 4 15C4 18.3 6.7 21 10 21C10.4 21 10.8 21 11.2 20.9C11.5 20.96 11.7 21 12 21C15.3 21 18 18.3 18 15C18 14.6 18 14.2 17.9 13.8C18.6 13.1 19 12.1 19 11C19 9.5 18.1 8.2 16.9 7.6C16.3 4.4 13.5 2 12 2Z" stroke="currentColor" stroke-width="1.5" fill="none"/>
  
  <!-- Neural network nodes -->
  <circle cx="9" cy="8" r="1" fill="currentColor" opacity="0.8"/>
  <circle cx="15" cy="8" r="1" fill="currentColor" opacity="0.8"/>
  <circle cx="12" cy="10" r="1" fill="currentColor" opacity="0.8"/>
  <circle cx="8" cy="12" r="1" fill="currentColor" opacity="0.8"/>
  <circle cx="16" cy="12" r="1" fill="currentColor" opacity="0.8"/>
  <circle cx="10" cy="15" r="1" fill="currentColor" opacity="0.8"/>
  <circle cx="14" cy="15" r="1" fill="currentColor" opacity="0.8"/>
  
  <!-- Neural connections -->
  <path d="M9 8L12 10M15 8L12 10M12 10L8 12M12 10L16 12M8 12L10 15M16 12L14 15M10 15L14 15" stroke="currentColor" stroke-width="0.8" opacity="0.4"/>
</svg>